<?xml version="1.0" encoding="utf-8"?>
<!-- Generator: Adobe Illustrator 27.3.1, SVG Export Plug-In . SVG Version: 6.00 Build 0)  -->
<svg version="1.1" id="Layer_1" xmlns="http://www.w3.org/2000/svg" xmlns:xlink="http://www.w3.org/1999/xlink" x="0px" y="0px"
	 viewBox="0 0 256 256" style="enable-background:new 0 0 256 256;" xml:space="preserve">
<style type="text/css">
	.st0{fill:#C1BEA6;}
	.st1{fill:#FFFFFF;}
</style>
<g id="BYyw7k.tif">
	<g>
		<path class="st0" d="M144.6,128.8c0,31.6,0,63.2,0,94.9c0,1.8,0,1.8,1.9,1.8c19,0,38,0,56.9,0c2,0,2,0,2-2c0-63.1,0-126.2,0-189.3
			c0-1.9,0-1.9-1.9-1.9c-19,0-38,0-56.9,0c-1.9,0-1.9,0-1.9,1.9C144.6,65.7,144.6,97.3,144.6,128.8z M112.3,129.1
			c0-31.2,0-62.3,0-93.5c0-0.5,0-1,0-1.5c0-1.8-0.1-1.8-1.8-1.8c-19.1,0-38.1,0-57.2,0c-1.7,0-1.7,0-1.7,1.8c0,63.2,0,126.4,0,189.6
			c0,1.8,0,1.8,1.9,1.8c19,0,38,0,56.9,0c2,0,2,0,2-2C112.3,192,112.3,160.5,112.3,129.1z"/>
		<path class="st1" d="M144.6,128.8c0-31.5,0-63.1,0-94.6c0-1.9,0-1.9,1.9-1.9c19,0,38,0,56.9,0c1.9,0,1.9,0,1.9,1.9
			c0,63.1,0,126.2,0,189.3c0,2,0,2-2,2c-19,0-38,0-56.9,0c-1.9,0-1.9,0-1.9-1.8C144.6,192,144.6,160.4,144.6,128.8z"/>
		<path class="st1" d="M112.3,129.1c0,31.5,0,63,0,94.5c0,2,0,2-2,2c-19,0-38,0-56.9,0c-1.9,0-1.9,0-1.9-1.8c0-63.2,0-126.4,0-189.6
			c0-1.8,0-1.8,1.7-1.8c19.1,0,38.1,0,57.2,0c1.8,0,1.8,0,1.8,1.8c0,0.5,0,1,0,1.5C112.3,66.7,112.3,97.9,112.3,129.1z"/>
	</g>
</g>
</svg>
