<?xml version="1.0" encoding="utf-8"?>
<!-- Generator: Adobe Illustrator 27.3.1, SVG Export Plug-In . SVG Version: 6.00 Build 0)  -->
<svg version="1.1" id="Layer_1" xmlns="http://www.w3.org/2000/svg" xmlns:xlink="http://www.w3.org/1999/xlink" x="0px" y="0px"
	 viewBox="0 0 256 256" style="enable-background:new 0 0 256 256;" xml:space="preserve">
<style type="text/css">
	.st0{fill:#C1BEA6;}
	.st1{fill:#FFFFFF;}
</style>
<g>
	<path class="st0" d="M78.2,222.7c3-2.7,5.7-5.2,8.4-7.7c2.1-1.9,4.3-3.6,6.2-5.7c1.7-1.8,3.7-3.3,5.4-5c1.5-1.4,3-2.8,4.6-4.2
		c2.1-1.8,4.1-3.7,6.1-5.7c1.2-1.3,2.6-2.5,3.9-3.6c8.1-6.9,15.7-14.3,23.6-21.5c1.8-1.6,3.6-3.3,5.3-5c1.6-1.5,3.4-3.1,5.1-4.6
		c1.9-1.7,4-3.1,5.6-5.2c0.6-0.8,1.9-1.2,2.5-2c1.3-1.9,3.3-3.1,4.9-4.6c1.6-1.5,3.4-3.1,5.1-4.6c1.9-1.7,4-3.1,5.6-5.2
		c0.5-0.8,1.7-1.1,2.3-1.8c1.7-2.1,4-3.4,5.8-5.3c0.7-0.7,0.9-1,0-1.8c-6.9-6.3-13.8-12.6-20.6-18.9c-7.8-7.1-15.6-14.3-23.4-21.4
		c-6.7-6.1-13.3-12.3-20-18.4c-11.9-10.9-23.7-21.7-35.6-32.6c-0.1-0.1-0.3-0.2-0.6-0.4C78.2,99.2,78.2,160.8,78.2,222.7z"/>
	<path class="st1" d="M78.2,37.3c0,61.8,0,123.4,0,185.4c3-2.7,5.7-5.2,8.4-7.7c2.1-1.9,4.3-3.6,6.2-5.7c1.7-1.8,3.7-3.3,5.4-5
		c1.5-1.4,3-2.8,4.6-4.2c2.1-1.8,4.1-3.7,6.1-5.7c1.2-1.3,2.6-2.5,3.9-3.6c8.1-6.9,15.7-14.3,23.6-21.5c1.8-1.6,3.6-3.3,5.3-5
		c1.6-1.5,3.4-3.1,5.1-4.6c1.9-1.7,4-3.1,5.6-5.2c0.6-0.8,1.9-1.2,2.5-2c1.3-1.9,3.3-3.1,4.9-4.6c1.6-1.5,3.4-3.1,5.1-4.6
		c1.9-1.7,4-3.1,5.6-5.2c0.5-0.8,1.7-1.1,2.3-1.8c1.7-2.1,4-3.4,5.8-5.3c0.7-0.7,0.9-1,0-1.8c-6.9-6.3-13.8-12.6-20.6-18.9
		c-7.8-7.1-15.6-14.3-23.4-21.4c-6.7-6.1-13.3-12.3-20-18.4c-11.9-10.9-23.7-21.7-35.6-32.6C78.6,37.6,78.5,37.5,78.2,37.3z"/>
</g>
</svg>
