<?xml version="1.0" encoding="utf-8"?>
<!-- Generator: Adobe Illustrator 27.3.1, SVG Export Plug-In . SVG Version: 6.00 Build 0)  -->
<svg version="1.1" id="Layer_1" xmlns="http://www.w3.org/2000/svg" xmlns:xlink="http://www.w3.org/1999/xlink" x="0px" y="0px"
	 viewBox="0 0 256 256" style="enable-background:new 0 0 256 256;" xml:space="preserve">
<style type="text/css">
	.st0{fill:#C1BEA6;}
	.st1{fill:#FFFFFF;}
</style>
<g>
	<path class="st0" d="M41.9,129.6c-0.1-0.1-0.2-0.1-0.3-0.2c0-0.6,0-1.3,0-1.9c0-34.3,0-68.6,0-102.9c0-1.5-0.3-2-1.9-2
		c-11.9,0.1-23.9,0-35.8,0c-2,0-2,0-2,2c0,70.2,0,140.5,0,210.7c0,2,0,2,2.1,2c11.8,0,23.6,0,35.4,0c2.2,0,2.2,0,2.2-2.2
		c0-34.3,0-68.6,0-102.9c0-0.6-0.1-1.2,0.3-2c34.6,30.8,69.1,61.6,103.6,92.3c0.3-1,0.4-1.9,0.4-2.8c0-21.7,0-43.4,0-65.1
		c0-38.5,0-77.1,0-115.6c0-0.5,0.3-1.3-0.2-1.5c-0.6-0.3-0.9,0.5-1.3,0.8c-5.8,5.1-11.6,10.3-17.4,15.4c-3.9,3.5-7.9,6.8-11.7,10.5
		c-2.2,2.1-4.6,3.9-6.7,6.1c-2.5,2.6-5.4,4.8-8.2,7.1c-1.2,1-2,2.3-3.3,3.2c-1.5,1-2.7,2.3-4,3.5c-1.3,1.2-2.6,2.5-4,3.5
		c-3.4,2.6-6.4,5.7-9.6,8.5c-2.2,2-4.5,3.8-6.6,6c-2.6,2.6-5.5,4.8-8.3,7.2c-1.2,1-2.1,2.3-3.3,3.2c-1.4,1.1-2.8,2.2-4,3.4
		c-1.4,1.4-2.9,2.7-4.4,3.9c-2.3,2-4.6,3.9-6.7,6C44.9,127.2,43.3,128.2,41.9,129.6z M254,37.3c-0.3,0.2-0.5,0.3-0.6,0.4
		c-11.9,10.9-23.7,21.7-35.6,32.6c-6.7,6.1-13.3,12.3-20,18.4c-7.8,7.2-15.6,14.3-23.4,21.4c-6.9,6.3-13.7,12.7-20.6,18.9
		c-0.9,0.8-0.7,1.1,0,1.8c1.8,1.9,4.1,3.2,5.8,5.3c0.6,0.7,1.8,1,2.3,1.8c1.5,2.1,3.7,3.6,5.6,5.2c1.7,1.5,3.4,3.1,5.1,4.6
		c1.6,1.5,3.6,2.7,4.9,4.6c0.6,0.8,1.9,1.2,2.5,2c1.5,2.1,3.7,3.5,5.6,5.2c1.7,1.5,3.4,3.1,5.1,4.6c1.7,1.7,3.6,3.4,5.3,5
		c7.8,7.2,15.5,14.6,23.6,21.5c1.3,1.1,2.7,2.3,3.9,3.6c1.9,2,4,3.9,6.1,5.7c1.6,1.4,3.1,2.8,4.6,4.2c1.8,1.7,3.7,3.2,5.4,5
		c1.9,2,4.1,3.8,6.2,5.7c2.7,2.5,5.4,5,8.4,7.7C254,160.8,254,99.2,254,37.3z"/>
	<path class="st1" d="M41.9,129.6c1.4-1.4,3-2.4,4.3-3.7c2.1-2.1,4.4-4,6.7-6c1.5-1.3,3-2.6,4.4-3.9c1.3-1.2,2.6-2.4,4-3.4
		c1.2-0.9,2.1-2.2,3.3-3.2c2.8-2.4,5.8-4.6,8.3-7.2c2.1-2.1,4.4-4,6.6-6c3.2-2.8,6.2-5.9,9.6-8.5c1.4-1,2.7-2.3,4-3.5
		c1.3-1.2,2.5-2.5,4-3.5c1.3-0.8,2.1-2.2,3.3-3.2c2.8-2.3,5.7-4.6,8.2-7.1c2.1-2.2,4.5-4,6.7-6.1c3.7-3.6,7.8-7,11.7-10.5
		c5.8-5.1,11.6-10.3,17.4-15.4c0.4-0.3,0.7-1.1,1.3-0.8c0.5,0.3,0.2,1,0.2,1.5c0,38.5,0,77.1,0,115.6c0,21.7,0,43.4,0,65.1
		c0,0.9-0.1,1.8-0.4,2.8c-34.6-30.8-69-61.5-103.6-92.3c-0.4,0.8-0.3,1.4-0.3,2c0,34.3,0,68.6,0,102.9c0,2.2,0,2.2-2.2,2.2
		c-11.8,0-23.6,0-35.4,0c-2.1,0-2.1,0-2.1-2c0-70.2,0-140.5,0-210.7c0-2,0-2,2-2c11.9,0,23.9,0,35.8,0c1.6,0,1.9,0.5,1.9,2
		c0,34.3,0,68.6,0,102.9c0,0.6,0,1.3,0,1.9C41.7,129.4,41.8,129.5,41.9,129.6z"/>
	<path class="st1" d="M254,37.3c0,61.8,0,123.4,0,185.4c-3-2.7-5.7-5.2-8.4-7.7c-2.1-1.9-4.3-3.6-6.2-5.7c-1.7-1.8-3.7-3.3-5.4-5
		c-1.5-1.4-3-2.8-4.6-4.2c-2.1-1.8-4.1-3.7-6.1-5.7c-1.2-1.3-2.6-2.5-3.9-3.6c-8.1-6.9-15.7-14.3-23.6-21.5c-1.8-1.6-3.6-3.3-5.3-5
		c-1.6-1.5-3.4-3.1-5.1-4.6c-1.9-1.7-4-3.1-5.6-5.2c-0.6-0.8-1.9-1.2-2.5-2c-1.3-1.9-3.3-3.1-4.9-4.6c-1.6-1.5-3.4-3.1-5.1-4.6
		c-1.9-1.7-4-3.1-5.6-5.2c-0.5-0.8-1.7-1.1-2.3-1.8c-1.7-2.1-4-3.4-5.8-5.3c-0.7-0.7-0.9-1,0-1.8c6.9-6.3,13.8-12.6,20.6-18.9
		c7.8-7.1,15.6-14.3,23.4-21.4c6.7-6.1,13.3-12.3,20-18.4c11.9-10.9,23.7-21.7,35.6-32.6C253.5,37.6,253.7,37.5,254,37.3z"/>
</g>
</svg>
