<?xml version="1.0" encoding="utf-8"?>
<!-- Generator: Adobe Illustrator 27.3.1, SVG Export Plug-In . SVG Version: 6.00 Build 0)  -->
<svg version="1.1" id="Layer_1" xmlns="http://www.w3.org/2000/svg" xmlns:xlink="http://www.w3.org/1999/xlink" x="0px" y="0px"
	 viewBox="0 0 256 256" style="enable-background:new 0 0 256 256;" xml:space="preserve">
<style type="text/css">
	.st0{fill:#A5A28C;}
	.st1{fill:#FFFFFF;}
</style>
<g id="i0umQk.tif">
	<g>
		<path class="st0" d="M98.1,108.8c1.6-0.4,3.2-0.8,4.8-1.2c4.8-1.2,9.6-2.5,14.5-3.7c0.6-0.2,1.2-0.2,0.9-1.2
			c-0.7-2.5-1.6-4.9-2.5-7.3c-1.2-3.1-2.8-6-4.6-8.6c-2-2.9-4.3-5.5-7-7.9c-2.5-2.2-5.1-4.1-8-5.7c-4.4-2.4-9.1-4.2-14-5.2
			c-3.1-0.6-6.2-1.3-9.3-1.4c-4.7-0.1-9.4-0.2-14.2,0.4c-5.6,0.7-10.9,2.4-16.1,4.6c-3.1,1.3-5.9,3.1-8.7,5
			c-4.2,2.8-7.7,6.4-11,10.2c-5.1,5.8-8.3,12.6-10.5,20c-1.4,4.6-2.1,9.3-2.6,14c-0.5,4.7-0.4,9.4-0.3,14.2
			c0.1,3.7,0.7,7.3,1.4,10.9c1.5,7,3.7,13.6,7.5,19.7c2.7,4.3,5.8,8.2,9.5,11.6c3.6,3.3,7.5,6.2,11.7,8.4c7.4,3.9,15.3,6,23.7,6.5
			c8.1,0.4,16.1-0.3,23.9-2.8c4.1-1.3,7.8-3.2,11.4-5.6c2.6-1.7,5-3.5,7.2-5.6c2.5-2.3,4.3-5,6.2-7.8c3-4.5,4.8-9.4,6.2-14.5
			c0.2-0.7,0-0.9-0.6-1.1c-2.2-0.7-4.4-1-6.6-1.7c-3.8-1.2-7.7-1.9-11.6-3c-1.3-0.4-1.7,0-2.1,1.1c-1.6,3.8-3.6,7.3-6.4,10.4
			c-4.3,4.8-9.7,7.7-16.1,9c-3.6,0.7-7.2,0.7-10.7,0.5c-3.3-0.1-6.5-0.9-9.6-2.2c-3.8-1.5-7.2-3.7-10.2-6.5c-4.1-3.9-7-8.5-8.9-13.9
			c-1.4-4.1-2.5-8.3-2.7-12.5c-0.3-5.8-0.5-11.7,0.5-17.4c1-5.5,2.5-10.7,5.4-15.5c2.8-4.7,6.5-8.4,11.2-11.2c2-1.2,4.1-2.3,6.4-2.9
			c1.8-0.5,3.7-1.1,5.5-1.3c3.7-0.3,7.4-0.5,11.1,0.1c4.4,0.7,8.6,2,12.4,4.4c6.2,4,9.9,9.8,12.5,16.5
			C97.9,108.7,98,108.8,98.1,108.8z M158.2,128.8c-0.2-3.5,0.3-7.7,1-11.8c1-5.3,2.6-10.3,5.6-14.7c7-10.5,17.1-15.2,29.6-14.9
			c7.1,0.2,13.7,2.1,19.3,6.8c4.3,3.7,7.2,8.3,9.3,13.5c0.4,0.9,0.7,1.1,1.7,0.9c6.1-1.6,12.1-3.2,18.2-4.7c0.9-0.2,1.1-0.6,0.9-1.5
			c-4.6-16.4-14.4-27.9-31-33.1c-6-1.9-12.1-2.7-18.4-3c-2.6-0.1-5.3,0.2-7.9,0.4c-5,0.4-9.8,1.5-14.5,3.2
			c-11.8,4.5-21.2,12-27.9,22.7c-6.6,10.6-9,22.3-9.1,34.6c0,4.3,0,8.5,0.5,12.8c0.7,5.6,1.9,11.1,4,16.4c3.5,9.2,9.1,16.8,16.8,23
			c8.3,6.8,17.8,10.8,28.4,12.2c7.8,1,15.7,0.7,23.4-1.1c5.7-1.3,11.1-3.3,16-6.6c4.3-2.8,8.1-6.1,11.2-10.2
			c4.1-5.4,6.8-11.4,8.5-17.9c0.2-0.7,0-1-0.7-1.2c-1.4-0.3-2.8-0.8-4.1-1.1c-4.7-1.2-9.5-2.3-14.2-3.6c-1-0.3-1.3-0.1-1.7,0.8
			c-2.1,5.1-5.1,9.7-9.3,13.4c-3,2.6-6.4,4.4-10.1,5.5c-3.4,1.1-6.9,1.5-10.5,1.3c-1.8-0.1-3.7,0.1-5.4-0.2
			c-4.2-0.8-8.2-1.9-11.9-4.1c-3.6-2.2-6.8-4.8-9.4-8.2c-3-3.9-4.9-8.3-6.3-12.9c-0.8-2.7-1.2-5.4-1.6-8.1
			C158,134.8,158.2,132.1,158.2,128.8z"/>
		<path class="st1" d="M158.2,128.8c0,3.3-0.1,6,0.3,8.7c0.4,2.7,0.8,5.5,1.6,8.1c1.4,4.7,3.4,9,6.3,12.9c2.6,3.4,5.8,6,9.4,8.2
			c3.7,2.2,7.8,3.3,11.9,4.1c1.8,0.3,3.6,0.1,5.4,0.2c3.6,0.2,7.1-0.3,10.5-1.3c3.7-1.1,7.1-2.9,10.1-5.5c4.2-3.7,7.2-8.3,9.3-13.4
			c0.4-0.9,0.7-1.1,1.7-0.8c4.7,1.3,9.5,2.4,14.2,3.6c1.4,0.3,2.8,0.8,4.1,1.1c0.7,0.2,0.9,0.6,0.7,1.2c-1.7,6.5-4.5,12.5-8.5,17.9
			c-3.1,4.1-7,7.4-11.2,10.2c-4.9,3.2-10.3,5.3-16,6.6c-7.7,1.8-15.6,2.1-23.4,1.1c-10.6-1.4-20.1-5.4-28.4-12.2
			c-7.6-6.2-13.3-13.8-16.8-23c-2-5.3-3.3-10.8-4-16.4c-0.5-4.3-0.6-8.5-0.5-12.8c0.1-12.3,2.5-24.1,9.1-34.6
			c6.7-10.7,16.1-18.3,27.9-22.7c4.6-1.8,9.5-2.8,14.5-3.2c2.6-0.2,5.3-0.5,7.9-0.4c6.2,0.3,12.4,1.1,18.4,3
			c16.6,5.2,26.4,16.7,31,33.1c0.3,0.9,0.1,1.2-0.9,1.5c-6.1,1.5-12.2,3.1-18.2,4.7c-1,0.3-1.3,0-1.7-0.9c-2.1-5.2-5-9.8-9.3-13.5
			c-5.6-4.7-12.2-6.6-19.3-6.8c-12.5-0.3-22.5,4.4-29.6,14.9c-3,4.5-4.6,9.5-5.6,14.7C158.4,121.1,158,125.3,158.2,128.8z"/>
		<path class="st1" d="M97.9,108.6c-2.6-6.7-6.4-12.5-12.5-16.5c-3.8-2.4-7.9-3.7-12.4-4.4c-3.7-0.6-7.4-0.4-11.1-0.1
			c-1.8,0.2-3.7,0.8-5.5,1.3c-2.4,0.6-4.4,1.7-6.4,2.9c-4.7,2.7-8.4,6.5-11.2,11.2c-2.9,4.8-4.4,10-5.4,15.5
			c-1,5.8-0.8,11.6-0.5,17.4c0.2,4.3,1.3,8.4,2.7,12.5c1.9,5.4,4.7,10,8.9,13.9c3,2.8,6.4,4.9,10.2,6.5c3.1,1.2,6.3,2.1,9.6,2.2
			c3.6,0.1,7.2,0.2,10.7-0.5c6.3-1.3,11.7-4.2,16.1-9c2.8-3.1,4.9-6.6,6.4-10.4c0.4-1.1,0.8-1.5,2.1-1.1c3.8,1.1,7.8,1.8,11.6,3
			c2.2,0.7,4.4,1,6.6,1.7c0.6,0.2,0.8,0.4,0.6,1.1c-1.5,5.1-3.2,10.1-6.2,14.5c-1.8,2.8-3.7,5.6-6.2,7.8c-2.2,2.1-4.6,3.9-7.2,5.6
			c-3.6,2.4-7.3,4.3-11.4,5.6c-7.8,2.5-15.8,3.2-23.9,2.8c-8.4-0.5-16.3-2.6-23.7-6.5c-4.3-2.2-8.1-5.2-11.7-8.4
			c-3.8-3.4-6.9-7.3-9.5-11.6c-3.8-6.1-6-12.8-7.5-19.7c-0.8-3.6-1.4-7.3-1.4-10.9c-0.1-4.7-0.2-9.4,0.3-14.2
			c0.5-4.7,1.2-9.4,2.6-14c2.2-7.3,5.4-14.1,10.5-20c3.3-3.8,6.8-7.3,11-10.2c2.8-1.9,5.6-3.7,8.7-5c5.2-2.2,10.5-3.9,16.1-4.6
			c4.7-0.6,9.4-0.5,14.2-0.4c3.1,0,6.2,0.8,9.3,1.4c5,1,9.6,2.8,14,5.2c2.9,1.6,5.5,3.5,8,5.7c2.7,2.3,5,5,7,7.9
			c1.8,2.7,3.5,5.5,4.6,8.6c0.9,2.4,1.9,4.8,2.5,7.3c0.3,1.1-0.3,1.1-0.9,1.2c-4.8,1.2-9.6,2.5-14.5,3.7c-1.6,0.4-3.2,0.8-4.8,1.2
			C98.1,108.7,98,108.6,97.9,108.6z"/>
		<path class="st1" d="M97.9,108.6c0.1,0.1,0.1,0.1,0.2,0.2C98,108.8,97.9,108.7,97.9,108.6z"/>
	</g>
</g>
</svg>
